<?xml version="1.0" standalone="no"?>
<!DOCTYPE svg PUBLIC "-//W3C//DTD SVG 20010904//EN"
 "http://www.w3.org/TR/2001/REC-SVG-20010904/DTD/svg10.dtd">
<svg version="1.0" xmlns="http://www.w3.org/2000/svg"
 width="290.000000pt" height="290.000000pt" viewBox="0 0 290.000000 290.000000"
 preserveAspectRatio="xMidYMid meet">
<metadata>
Created by potrace 1.11, written by Peter Selinger 2001-2013
</metadata>
<g transform="translate(0.000000,290.000000) scale(0.100000,-0.100000)"
fill="#000000" stroke="none">
<path d="M203 2882 c-100 -35 -171 -115 -193 -216 -8 -36 -10 -403 -8 -1246
l3 -1195 28 -57 c32 -64 80 -111 146 -142 46 -21 47 -21 1271 -21 l1225 0 57
28 c64 32 111 80 142 146 21 46 21 47 21 1271 0 1224 0 1225 -21 1271 -31 66
-78 114 -142 146 l-57 28 -1210 2 c-1141 2 -1213 1 -1262 -15z m1422 -708
c257 -65 457 -283 509 -554 12 -60 15 -65 37 -62 41 5 151 -18 207 -43 61 -28
151 -110 186 -169 74 -127 74 -305 0 -432 -35 -59 -125 -141 -186 -169 -98
-44 -139 -46 -923 -43 -733 3 -741 4 -806 26 -176 59 -309 202 -355 384 -21
83 -15 222 14 301 70 193 242 330 445 353 l57 7 31 56 c102 193 291 325 514
362 65 10 194 2 270 -17z"/>
<path d="M1311 1964 c-172 -46 -308 -177 -368 -353 -17 -51 -26 -65 -40 -63
-62 10 -154 4 -201 -12 -70 -24 -152 -100 -183 -168 -35 -80 -34 -193 4 -270
30 -62 83 -115 149 -150 l43 -23 760 -3 c850 -3 812 -6 879 68 72 80 74 196 4
276 -53 61 -78 68 -233 74 l-140 5 -6 115 c-7 132 -27 195 -90 290 -70 103
-182 183 -304 215 -73 19 -202 18 -274 -1z"/>
</g>
</svg>
