<?xml version="1.0" standalone="no"?>
<!DOCTYPE svg PUBLIC "-//W3C//DTD SVG 20010904//EN"
 "http://www.w3.org/TR/2001/REC-SVG-20010904/DTD/svg10.dtd">
<svg version="1.0" xmlns="http://www.w3.org/2000/svg"
 width="256.000000pt" height="256.000000pt" viewBox="0 0 256.000000 256.000000"
 preserveAspectRatio="xMidYMid meet">
<metadata>
Created by potrace 1.11, written by Peter Selinger 2001-2013
</metadata>
<g transform="translate(0.000000,256.000000) scale(0.100000,-0.100000)"
fill="#000000" stroke="none">
<path d="M1210 2023 c-236 -30 -443 -172 -545 -373 l-23 -45 -76 -12 c-202
-32 -360 -161 -428 -350 -26 -71 -35 -207 -19 -285 38 -179 182 -340 360 -400
66 -22 70 -23 806 -26 784 -3 825 -1 923 43 61 28 151 110 186 169 74 127 74
305 0 432 -35 59 -125 141 -186 169 -56 25 -166 48 -207 43 -22 -3 -25 2 -37
62 -62 324 -321 554 -644 573 -41 3 -91 3 -110 0z m205 -228 c122 -32 234
-112 304 -215 63 -95 83 -158 90 -290 l6 -115 140 -5 c151 -5 176 -13 227 -67
98 -103 67 -267 -65 -334 -36 -19 -63 -19 -805 -17 l-767 3 -43 23 c-66 35
-119 88 -149 150 -38 77 -39 190 -4 269 28 62 103 136 169 165 44 20 148 28
215 16 14 -2 23 11 40 63 60 176 196 307 368 353 72 19 201 20 274 1z"/>
</g>
</svg>
